<?xml version="1.0" encoding="UTF-8" standalone="no"?>
<!-- Created with Inkscape (http://www.inkscape.org/) -->

<svg
   width="210mm"
   height="297mm"
   viewBox="0 0 210 297"
   version="1.1"
   id="svg5"
   inkscape:version="1.2 (dc2aedaf03, 2022-05-15)"
   sodipodi:docname="complextree.svg"
   xmlns:inkscape="http://www.inkscape.org/namespaces/inkscape"
   xmlns:sodipodi="http://sodipodi.sourceforge.net/DTD/sodipodi-0.dtd"
   xmlns="http://www.w3.org/2000/svg"
   xmlns:svg="http://www.w3.org/2000/svg">
  <sodipodi:namedview
     id="namedview7"
     pagecolor="#ffffff"
     bordercolor="#666666"
     borderopacity="1.0"
     inkscape:showpageshadow="2"
     inkscape:pageopacity="0.0"
     inkscape:pagecheckerboard="0"
     inkscape:deskcolor="#d1d1d1"
     inkscape:document-units="mm"
     showgrid="false"
     inkscape:zoom="0.57816358"
     inkscape:cx="403.86494"
     inkscape:cy="404.72975"
     inkscape:window-width="1920"
     inkscape:window-height="1009"
     inkscape:window-x="1592"
     inkscape:window-y="-8"
     inkscape:window-maximized="1"
     inkscape:current-layer="layer1" />
  <defs
     id="defs2" />
  <g
     inkscape:label="Layer 1"
     inkscape:groupmode="layer"
     id="layer1">
    <path
       style="fill:#ff6600;stroke:#000000;stroke-width:0.264583px;stroke-linecap:butt;stroke-linejoin:miter;stroke-opacity:1"
       d="M 76.423728,296.08473 103.42373,7.3220342 134.08474,296.54237 Z"
       id="path72"
       sodipodi:nodetypes="cccc" />
    <ellipse
       style="fill:#00ff00;stroke-width:0.695126;stroke-dasharray:0.695126, 2.08538;fill-opacity:0.41450778"
       id="path336"
       cx="107.08474"
       cy="135.91525"
       rx="89.237282"
       ry="129.50847" />
    <path
       style="fill:#d45500;stroke:#000000;stroke-width:0.264583px;stroke-linecap:butt;stroke-linejoin:miter;stroke-opacity:1"
       d="m 29.288135,74.593218 74.403675,50.296942 0.18954,-5.44948 z"
       id="path1018"
       sodipodi:nodetypes="cccc" />
    <path
       style="fill:#d45500;stroke:#000000;stroke-width:0.264583px;stroke-linecap:butt;stroke-linejoin:miter;stroke-opacity:1"
       d="m 181.19054,64.213537 -76.39596,41.593313 0.48537,4.90858 z"
       id="path1018-4"
       sodipodi:nodetypes="cccc" />
    <path
       style="display:inline;fill:#d45500;stroke:#000000;stroke-width:0.305935px;stroke-linecap:butt;stroke-linejoin:miter;stroke-opacity:1"
       d="m 104.80493,73.966062 0.32485,6.063633 54.56998,-50.26543 z"
       id="path2651"
       sodipodi:nodetypes="cccc" />
    <path
       style="display:inline;fill:#d45500;stroke:#000000;stroke-width:0.305935px;stroke-linecap:butt;stroke-linejoin:miter;stroke-opacity:1"
       d="m 49.479579,39.157833 54.428231,56.68569 -0.0498,-6.617816 z"
       id="path1018-2"
       sodipodi:nodetypes="cccc" />
    <path
       style="fill:#d45500;stroke:#000000;stroke-width:0.264583px;stroke-linecap:butt;stroke-linejoin:miter;stroke-opacity:1"
       d="m 21.021041,115.9254 83.801289,41.25543 -1.42841,-7.39102 z"
       id="path1018-9"
       sodipodi:nodetypes="cccc" />
    <path
       style="fill:#d45500;stroke:#000000;stroke-width:0.264583px;stroke-linecap:butt;stroke-linejoin:miter;stroke-opacity:1"
       d="m 22.39393,171.29828 80.48687,15.00414 0.51313,-5.85159 z"
       id="path1018-6"
       sodipodi:nodetypes="cccc" />
    <path
       style="fill:#d45500;stroke:#000000;stroke-width:0.264583px;stroke-linecap:butt;stroke-linejoin:miter;stroke-opacity:1"
       d="m 34.749863,211.56947 69.531577,4.62226 0.0277,-4.62226 z"
       id="path1018-5"
       sodipodi:nodetypes="cccc" />
    <path
       style="fill:#d45500;stroke:#000000;stroke-width:0.264583px;stroke-linecap:butt;stroke-linejoin:miter;stroke-opacity:1"
       d="m 18.24601,141.39157 46.835007,-5.52405 -5.269453,-2.31113 z"
       id="path1018-5-7"
       sodipodi:nodetypes="cccc" />
    <path
       style="fill:#d45500;stroke:#000000;stroke-width:0.264583px;stroke-linecap:butt;stroke-linejoin:miter;stroke-opacity:1"
       d="m 29.042664,197.92649 52.159974,-16.42858 -5.269453,-1.66395 z"
       id="path1018-5-7-95"
       sodipodi:nodetypes="cccc" />
    <path
       style="fill:#d45500;stroke:#000000;stroke-width:0.264583px;stroke-linecap:butt;stroke-linejoin:miter;stroke-opacity:1"
       d="m 40.025714,225.84175 33.257647,-12.38846 -6.198179,-0.15703 z"
       id="path1018-5-7-95-3"
       sodipodi:nodetypes="cccc" />
    <path
       style="fill:#d45500;stroke:#000000;stroke-width:0.279129px;stroke-linecap:butt;stroke-linejoin:miter;stroke-opacity:1"
       d="m 196.49882,114.62773 -42.96599,36.82979 5.79899,-0.52198 z"
       id="path1018-5-7-3"
       sodipodi:nodetypes="cccc" />
    <path
       style="fill:#d45500;stroke:#000000;stroke-width:0.293346px;stroke-linecap:butt;stroke-linejoin:miter;stroke-opacity:1"
       d="m 186.00879,76.15901 -41.76758,45.33085 4.86101,-1.37689 z"
       id="path1018-5-7-0"
       sodipodi:nodetypes="cccc" />
    <path
       style="fill:#d45500;stroke:#000000;stroke-width:0.293346px;stroke-linecap:butt;stroke-linejoin:miter;stroke-opacity:1"
       d="m 194.90137,163.55447 -57.76153,30.73277 6.92707,0.40763 z"
       id="path1018-5-7-0-2"
       sodipodi:nodetypes="cccc" />
    <path
       style="fill:#d45500;stroke:#000000;stroke-width:0.293346px;stroke-linecap:butt;stroke-linejoin:miter;stroke-opacity:1"
       d="m 176.59629,217.55446 -49.41797,17.90099 0.54329,1.34111 z"
       id="path1018-5-7-0-2-0"
       sodipodi:nodetypes="cccc" />
    <path
       style="fill:#d45500;stroke:#000000;stroke-width:0.264583px;stroke-linecap:butt;stroke-linejoin:miter;stroke-opacity:1"
       d="M 22.869125,101.13814 67.688831,98.655682 64.81379,97.477117 Z"
       id="path1018-5-7-9"
       sodipodi:nodetypes="cccc" />
    <path
       style="fill:#d45500;stroke:#000000;stroke-width:0.30787px;stroke-linecap:butt;stroke-linejoin:miter;stroke-opacity:1"
       d="m 154.40808,101.58828 -25.34927,-6.845775 3.21111,-2.155281 z"
       id="path1018-5-7-9-3"
       sodipodi:nodetypes="cccc" />
    <path
       style="fill:#d45500;stroke:#000000;stroke-width:0.264583px;stroke-linecap:butt;stroke-linejoin:miter;stroke-opacity:1"
       d="m 61.90538,248.01392 42.64262,-8.26982 0.26806,-4.29867 z"
       id="path1018-5-0"
       sodipodi:nodetypes="cccc" />
    <path
       style="fill:#d45500;stroke:#000000;stroke-width:0.234456px;stroke-linecap:butt;stroke-linejoin:miter;stroke-opacity:1"
       d="m 188.81262,189.12894 -85.1274,12.53968 0.36761,-7.05639 z"
       id="path1018-22"
       sodipodi:nodetypes="cccc" />
    <path
       style="fill:#d45500;stroke:#000000;stroke-width:0.244548px;stroke-linecap:butt;stroke-linejoin:miter;stroke-opacity:1"
       d="m 160.03767,241.82814 -55.39592,-6.84203 0.90398,-4.89571 z"
       id="path1018-22-0"
       sodipodi:nodetypes="cccc" />
    <path
       style="fill:#d45500;stroke:#000000;stroke-width:0.244548px;stroke-linecap:butt;stroke-linejoin:miter;stroke-opacity:1"
       d="m 195.89961,139.24313 -90.25412,33.008 -1.8188,-7.82151 z"
       id="path1018-22-6"
       sodipodi:nodetypes="cccc" />
    <path
       style="fill:#d45500;stroke:#000000;stroke-width:0.244548px;stroke-linecap:butt;stroke-linejoin:miter;stroke-opacity:1"
       d="m 133.2047,13.853301 -27.42516,41.254816 -0.12234,-6.91578 z"
       id="path1018-22-67"
       sodipodi:nodetypes="cccc" />
    <path
       style="fill:#d45500;stroke:#000000;stroke-width:0.244548px;stroke-linecap:butt;stroke-linejoin:miter;stroke-opacity:1"
       d="m 191.32333,101.7177 -87.56387,40.63063 -0.25639,-4.80767 z"
       id="path1018-22-3"
       sodipodi:nodetypes="cccc" />
    <path
       style="fill:#d45500;stroke:#000000;stroke-width:0.187342px;stroke-linecap:butt;stroke-linejoin:miter;stroke-opacity:1"
       d="m 68.378865,19.311227 36.789225,48.934909 0.0945,-6.76532 z"
       id="path1018-22-2"
       sodipodi:nodetypes="cccc" />
    <path
       style="fill:#d45500;stroke:#000000;stroke-width:0.289264px;stroke-linecap:butt;stroke-linejoin:miter;stroke-opacity:1"
       d="m 144.78507,20.590169 -17.11138,36.713726 3.89065,-3.356359 z"
       id="path1018-5-7-9-3-1"
       sodipodi:nodetypes="cccc" />
    <path
       style="fill:#d45500;stroke:#000000;stroke-width:0.289264px;stroke-linecap:butt;stroke-linejoin:miter;stroke-opacity:1"
       d="m 166.75458,40.725973 -13.75096,39.140659 2.86912,-1.391814 z"
       id="path1018-5-7-9-3-1-6"
       sodipodi:nodetypes="cccc" />
    <path
       style="fill:#d45500;stroke:#000000;stroke-width:0.289264px;stroke-linecap:butt;stroke-linejoin:miter;stroke-opacity:1"
       d="m 68.5772,69.782702 11.127467,36.362368 4.052444,2.65308 z"
       id="path3093"
       sodipodi:nodetypes="cccc" />
    <path
       style="fill:#d45500;stroke:#000000;stroke-width:0.289264px;stroke-linecap:butt;stroke-linejoin:miter;stroke-opacity:1"
       d="m 20.463747,150.64659 34.924071,25.45784 5.046215,0.60525 z"
       id="path3093-7"
       sodipodi:nodetypes="cccc" />
    <path
       style="fill:#d45500;stroke:#000000;stroke-width:0.289264px;stroke-linecap:butt;stroke-linejoin:miter;stroke-opacity:1"
       d="m 41.581246,53.431736 12.449591,37.171352 2.221936,1.35871 z"
       id="path1018-5-7-9-3-1-6-0"
       sodipodi:nodetypes="cccc" />
    <path
       style="fill:#d45500;stroke:#000000;stroke-width:0.302583px;stroke-linecap:butt;stroke-linejoin:miter;stroke-opacity:1"
       d="M 61.065651,26.537557 73.029786,62.330085 70.137795,59.39125 Z"
       id="path1018-5-7-9-3-9"
       sodipodi:nodetypes="cccc" />
    <path
       style="fill:#d45500;stroke:#000000;stroke-width:0.202346px;stroke-linecap:butt;stroke-linejoin:miter;stroke-opacity:1"
       d="m 157.60324,173.48851 -33.23381,-9.43394 4.64688,-3.36023 z"
       id="path1018-5-7-95-8"
       sodipodi:nodetypes="cccc" />
    <path
       style="fill:#00ff00;fill-opacity:0.804444;stroke:#000000;stroke-width:0.264583px;stroke-linecap:butt;stroke-linejoin:miter;stroke-opacity:1"
       d="m 22.178931,100.27585 4.14029,8.24232 -7.84924,4.51627 4.61198,15.17951 -3.38001,13.35978 5.92614,4.33819 -4.10945,3.99173 -0.35179,19.48953 8.13693,12.96059 -0.71795,16.9046 5.90346,11.78524 8.54811,17.06485 20.45554,7.04454 1.4057,14.5089 35.992159,5.29191 17.88458,-3.11844 45.95008,-9.367 -0.98291,-11.10625 16.4406,-13.90651 -5.33526,-12.42133 15.42195,-16.30097 5.18342,-25.2709 -6.53626,-10.54917 8.07883,-13.75378 -2.94277,-9.53127 4.31231,-15.62353 -4.1116,-15.686038 -8.35139,-10.039048 1.47994,-14.546088 -4.31292,-11.396408 -10.79624,-6.75275 -4.5688,-16.172876 -6.88981,-10.043478 -11.39464,-1.968839 -2.30877,-9.496157 -11.89831,-6.40678 -16.06383,1.134023 -5.76815,-6.2076702 -10.20191,-1.7907601 -9.435789,2.7747929 -5.25468,7.1606934 -20.54683,2.420447 -7.98698,8.874426 -12.60624,14.00693 0.84428,9.113218 -8.16899,4.107007 -2.37536,13.729964 -9.06264,6.914217 1.17441,14.943325 z"
       id="path3336"
       sodipodi:nodetypes="cccccccccccccccccccccccccccccccccccccccccccccccccc" />
    <path
       style="fill:#ffe700;fill-opacity:0.804444;stroke:#000000;stroke-width:0.264583px;stroke-linecap:butt;stroke-linejoin:miter;stroke-opacity:1"
       d="m 102.67671,5.0988968 -9.471167,2.8726683 -5.21941,7.0626419 -20.54655,2.420524 -8.90236,7.272699 -11.6907,15.608592 0.84388,9.113139 -8.16901,4.107243 -2.37505,13.729911 -9.0625,6.914307 1.17409,14.943271 -7.58093,11.599287 18.06861,19.47603 22.32149,-4.4133 14.01422,13.59943 15.77362,2.79007 10.673417,1.25847 25.85584,1.95678 28.82166,-11.74046 31.44254,-6.74144 5.10337,-18.143071 -8.35143,-10.039186 1.48001,-14.545881 -4.31291,-11.396204 -10.79624,-6.753076 -4.56872,-16.172656 -6.89002,-10.043832 -11.39465,-1.968355 -2.3089,-9.496578 -11.89798,-6.406844 -16.06414,1.134298 -6.53064,-6.1323353 z"
       id="path3336-6"
       sodipodi:nodetypes="ccccccccccccccccccccccccccccccccc" />
  </g>
</svg>
